<svg width="0" height="0" viewBox="0 0 0 0" fill="none" xmlns="http://www.w3.org/2000/svg">
<symbol id="basics" viewBox="0 0 16 16">
<path d="M1 2.828c.885-.37 2.154-.769 3.388-.893 1.33-.134 2.458.063 3.112.752v9.746c-.935-.53-2.12-.603-3.213-.493-1.18.12-2.37.461-3.287.811zm7.5-.141c.654-.689 1.782-.886 3.112-.752 1.234.124 2.503.523 3.388.893v9.923c-.918-.35-2.107-.692-3.287-.81-1.094-.111-2.278-.039-3.213.492zM8 1.783C7.015.936 5.587.81 4.287.94c-1.514.153-3.042.672-3.994 1.105A.5.5 0 0 0 0 2.5v11a.5.5 0 0 0 .707.455c.882-.4 2.303-.881 3.68-1.02 1.409-.142 2.59.087 3.223.877a.5.5 0 0 0 .78 0c.633-.79 1.814-1.019 3.222-.877 1.378.139 2.8.62 3.681 1.02A.5.5 0 0 0 16 13.5v-11a.5.5 0 0 0-.293-.455c-.952-.433-2.48-.952-3.994-1.105C10.413.809 8.985.936 8 1.783"/>
</symbol>
<symbol id="content" viewBox="0 0 16 16">
<path d="M5.5 7a.5.5 0 0 0 0 1h5a.5.5 0 0 0 0-1zM5 9.5a.5.5 0 0 1 .5-.5h5a.5.5 0 0 1 0 1h-5a.5.5 0 0 1-.5-.5m0 2a.5.5 0 0 1 .5-.5h2a.5.5 0 0 1 0 1h-2a.5.5 0 0 1-.5-.5"/>
<path d="M9.5 0H4a2 2 0 0 0-2 2v12a2 2 0 0 0 2 2h8a2 2 0 0 0 2-2V4.5zm0 1v2A1.5 1.5 0 0 0 11 4.5h2V14a1 1 0 0 1-1 1H4a1 1 0 0 1-1-1V2a1 1 0 0 1 1-1z"/>
</symbol>
<symbol id="themes" viewBox="0 0 16 16">
<path d="M6.002 5.5a1.5 1.5 0 1 1-3 0 1.5 1.5 0 0 1 3 0"/>
<path d="M2.002 1a2 2 0 0 0-2 2v10a2 2 0 0 0 2 2h12a2 2 0 0 0 2-2V3a2 2 0 0 0-2-2zm12 1a1 1 0 0 1 1 1v6.5l-3.777-1.947a.5.5 0 0 0-.577.093l-3.71 3.71-2.66-1.772a.5.5 0 0 0-.63.062L1.002 12V3a1 1 0 0 1 1-1z"/>
</symbol>
<symbol id="plugins" viewBox="0 0 16 16">
<path fill-rule="evenodd" d="M1 8a7 7 0 1 1 2.898 5.673c-.167-.121-.216-.406-.002-.62l1.8-1.8a3.5 3.5 0 0 0 4.572-.328l1.414-1.415a.5.5 0 0 0 0-.707l-.707-.707 1.559-1.563a.5.5 0 1 0-.708-.706l-1.559 1.562-1.414-1.414 1.56-1.562a.5.5 0 1 0-.707-.706l-1.56 1.56-.707-.706a.5.5 0 0 0-.707 0L5.318 5.975a3.5 3.5 0 0 0-.328 4.571l-1.8 1.8c-.58.58-.62 1.6.121 2.137A8 8 0 1 0 0 8a.5.5 0 0 0 1 0"/>
</symbol>
<symbol id="admin" viewBox="0 0 16 16">
<path d="M6 1v3H1V1zM1 0a1 1 0 0 0-1 1v3a1 1 0 0 0 1 1h5a1 1 0 0 0 1-1V1a1 1 0 0 0-1-1zm14 12v3h-5v-3zm-5-1a1 1 0 0 0-1 1v3a1 1 0 0 0 1 1h5a1 1 0 0 0 1-1v-3a1 1 0 0 0-1-1zM6 8v7H1V8zM1 7a1 1 0 0 0-1 1v7a1 1 0 0 0 1 1h5a1 1 0 0 0 1-1V8a1 1 0 0 0-1-1zm14-6v7h-5V1zm-5-1a1 1 0 0 0-1 1v7a1 1 0 0 0 1 1h5a1 1 0 0 0 1-1V1a1 1 0 0 0-1-1z"/>
</symbol>
<symbol id="forms" viewBox="0 0 16 16">
<path fill-rule="evenodd" d="M5 2a.5.5 0 0 1 .5-.5c.862 0 1.573.287 2.06.566.174.099.321.198.44.286.119-.088.266-.187.44-.286A4.17 4.17 0 0 1 10.5 1.5a.5.5 0 0 1 0 1c-.638 0-1.177.213-1.564.434a3.5 3.5 0 0 0-.436.294V7.5H9a.5.5 0 0 1 0 1h-.5v4.272c.1.08.248.187.436.294.387.221.926.434 1.564.434a.5.5 0 0 1 0 1 4.17 4.17 0 0 1-2.06-.566A5 5 0 0 1 8 13.65a5 5 0 0 1-.44.285 4.17 4.17 0 0 1-2.06.566.5.5 0 0 1 0-1c.638 0 1.177-.213 1.564-.434.188-.107.335-.214.436-.294V8.5H7a.5.5 0 0 1 0-1h.5V3.228a3.5 3.5 0 0 0-.436-.294A3.17 3.17 0 0 0 5.5 2.5.5.5 0 0 1 5 2"/>
<path d="M10 5h4a1 1 0 0 1 1 1v4a1 1 0 0 1-1 1h-4v1h4a2 2 0 0 0 2-2V6a2 2 0 0 0-2-2h-4zM6 5V4H2a2 2 0 0 0-2 2v4a2 2 0 0 0 2 2h4v-1H2a1 1 0 0 1-1-1V6a1 1 0 0 1 1-1z"/>
</symbol>
<symbol id="cli" viewBox="0 0 16 16">
<path d="M6 9a.5.5 0 0 1 .5-.5h3a.5.5 0 0 1 0 1h-3A.5.5 0 0 1 6 9M3.854 4.146a.5.5 0 1 0-.708.708L4.793 6.5 3.146 8.146a.5.5 0 1 0 .708.708l2-2a.5.5 0 0 0 0-.708z"/>
<path d="M2 1a2 2 0 0 0-2 2v10a2 2 0 0 0 2 2h12a2 2 0 0 0 2-2V3a2 2 0 0 0-2-2zm12 1a1 1 0 0 1 1 1v10a1 1 0 0 1-1 1H2a1 1 0 0 1-1-1V3a1 1 0 0 1 1-1z"/>
</symbol>
<symbol id="advanced" viewBox="0 0 16 16">
<path d="M9.752 6.193c.599.6 1.73.437 2.528-.362s.96-1.932.362-2.531c-.599-.6-1.73-.438-2.528.361-.798.8-.96 1.933-.362 2.532"/>
<path d="M15.811 3.312c-.363 1.534-1.334 3.626-3.64 6.218l-.24 2.408a2.56 2.56 0 0 1-.732 1.526L8.817 15.85a.51.51 0 0 1-.867-.434l.27-1.899c.04-.28-.013-.593-.131-.956a9 9 0 0 0-.249-.657l-.082-.202c-.815-.197-1.578-.662-2.191-1.277-.614-.615-1.079-1.379-1.275-2.195l-.203-.083a10 10 0 0 0-.655-.248c-.363-.119-.675-.172-.955-.132l-1.896.27A.51.51 0 0 1 .15 7.17l2.382-2.386c.41-.41.947-.67 1.524-.734h.006l2.4-.238C9.005 1.55 11.087.582 12.623.208c.89-.217 1.59-.232 2.08-.188.244.023.435.06.57.093q.1.026.16.045c.184.06.279.13.351.295l.029.073a3.5 3.5 0 0 1 .157.721c.055.485.051 1.178-.159 2.065m-4.828 7.475.04-.04-.107 1.081a1.54 1.54 0 0 1-.44.913l-1.298 1.3.054-.38c.072-.506-.034-.993-.172-1.418a9 9 0 0 0-.164-.45c.738-.065 1.462-.38 2.087-1.006M5.205 5c-.625.626-.94 1.351-1.004 2.09a9 9 0 0 0-.45-.164c-.424-.138-.91-.244-1.416-.172l-.38.054 1.3-1.3c.245-.246.566-.401.91-.44l1.08-.107zm9.406-3.961c-.38-.034-.967-.027-1.746.163-1.558.38-3.917 1.496-6.937 4.521-.62.62-.799 1.34-.687 2.051.107.676.483 1.362 1.048 1.928.564.565 1.25.941 1.924 1.049.71.112 1.429-.067 2.048-.688 3.079-3.083 4.192-5.444 4.556-6.987.183-.771.18-1.345.138-1.713a3 3 0 0 0-.045-.283 3 3 0 0 0-.3-.041Z"/>
<path d="M7.009 12.139a7.6 7.6 0 0 1-1.804-1.352A7.6 7.6 0 0 1 3.794 8.86c-1.102.992-1.965 5.054-1.839 5.18.125.126 3.936-.896 5.054-1.902Z"/>
</symbol>
<symbol id="webservers" viewBox="0 0 16 16">
<path d="M4.5 5a.5.5 0 1 0 0-1 .5.5 0 0 0 0 1M3 4.5a.5.5 0 1 1-1 0 .5.5 0 0 1 1 0m2 7a.5.5 0 1 1-1 0 .5.5 0 0 1 1 0m-2.5.5a.5.5 0 1 0 0-1 .5.5 0 0 0 0 1"/>
<path d="M2 2a2 2 0 0 0-2 2v1a2 2 0 0 0 2 2h1v2H2a2 2 0 0 0-2 2v1a2 2 0 0 0 2 2h12a2 2 0 0 0 2-2v-1a2 2 0 0 0-2-2h-1V7h1a2 2 0 0 0 2-2V4a2 2 0 0 0-2-2zm13 2v1a1 1 0 0 1-1 1H2a1 1 0 0 1-1-1V4a1 1 0 0 1 1-1h12a1 1 0 0 1 1 1m0 7v1a1 1 0 0 1-1 1H2a1 1 0 0 1-1-1v-1a1 1 0 0 1 1-1h12a1 1 0 0 1 1 1m-3-4v2H4V7z"/>
</symbol>
<symbol id="cookbook" viewBox="0 0 16 16">
<path d="M7 4.25a.75.75 0 1 1-1.5 0 .75.75 0 0 1 1.5 0m-.861 1.542 1.33.886 1.854-1.855a.25.25 0 0 1 .289-.047l1.888.974V7.5a.5.5 0 0 1-.5.5H5a.5.5 0 0 1-.5-.5V7s1.54-1.274 1.639-1.208M5 9a.5.5 0 0 0 0 1h6a.5.5 0 0 0 0-1zm0 2a.5.5 0 0 0 0 1h3a.5.5 0 0 0 0-1z"/>
<path d="M2 2a2 2 0 0 1 2-2h8a2 2 0 0 1 2 2v12a2 2 0 0 1-2 2H4a2 2 0 0 1-2-2zm10-1H4a1 1 0 0 0-1 1v12a1 1 0 0 0 1 1h8a1 1 0 0 0 1-1V2a1 1 0 0 0-1-1"/>
</symbol>
<symbol id="troubleshooting" viewBox="0 0 16 16">
<path d="M4.355.522a.5.5 0 0 1 .623.333l.291.956A5 5 0 0 1 8 1c1.007 0 1.946.298 2.731.811l.29-.956a.5.5 0 1 1 .957.29l-.41 1.352A5 5 0 0 1 13 6h.5a.5.5 0 0 0 .5-.5V5a.5.5 0 0 1 1 0v.5A1.5 1.5 0 0 1 13.5 7H13v1h1.5a.5.5 0 0 1 0 1H13v1h.5a1.5 1.5 0 0 1 1.5 1.5v.5a.5.5 0 1 1-1 0v-.5a.5.5 0 0 0-.5-.5H13a5 5 0 0 1-10 0h-.5a.5.5 0 0 0-.5.5v.5a.5.5 0 1 1-1 0v-.5A1.5 1.5 0 0 1 2.5 10H3V9H1.5a.5.5 0 0 1 0-1H3V7h-.5A1.5 1.5 0 0 1 1 5.5V5a.5.5 0 0 1 1 0v.5a.5.5 0 0 0 .5.5H3c0-1.364.547-2.601 1.432-3.503l-.41-1.352a.5.5 0 0 1 .333-.623M4 7v4a4 4 0 0 0 3.5 3.97V7zm4.5 0v7.97A4 4 0 0 0 12 11V7zM12 6a4 4 0 0 0-1.334-2.982A3.98 3.98 0 0 0 8 2a3.98 3.98 0 0 0-2.667 1.018A4 4 0 0 0 4 6z"/>
</symbol>
<symbol id="migration" viewBox="0 0 16 16">
<path fill-rule="evenodd" d="M1 11.5a.5.5 0 0 0 .5.5h11.793l-3.147 3.146a.5.5 0 0 0 .708.708l4-4a.5.5 0 0 0 0-.708l-4-4a.5.5 0 0 0-.708.708L13.293 11H1.5a.5.5 0 0 0-.5.5m14-7a.5.5 0 0 1-.5.5H2.707l3.147 3.146a.5.5 0 1 1-.708.708l-4-4a.5.5 0 0 1 0-.708l4-4a.5.5 0 1 1 .708.708L2.707 4H14.5a.5.5 0 0 1 .5.5"/>
</symbol>
<symbol id="security" viewBox="0 0 16 16">
<path d="M5.338 1.59a61 61 0 0 0-2.837.856.48.48 0 0 0-.328.39c-.554 4.157.726 7.19 2.253 9.188a10.7 10.7 0 0 0 2.287 2.233c.346.244.652.42.893.533q.18.085.293.118a1 1 0 0 0 .101.025 1 1 0 0 0 .1-.025q.114-.034.294-.118c.24-.113.547-.29.893-.533a10.7 10.7 0 0 0 2.287-2.233c1.527-1.997 2.807-5.031 2.253-9.188a.48.48 0 0 0-.328-.39c-.651-.213-1.75-.56-2.837-.855C9.552 1.29 8.531 1.067 8 1.067c-.53 0-1.552.223-2.662.524zM5.072.56C6.157.265 7.31 0 8 0s1.843.265 2.928.56c1.11.3 2.229.655 2.887.87a1.54 1.54 0 0 1 1.044 1.262c.596 4.477-.787 7.795-2.465 9.99a11.8 11.8 0 0 1-2.517 2.453 7 7 0 0 1-1.048.625c-.28.132-.581.24-.829.24s-.548-.108-.829-.24a7 7 0 0 1-1.048-.625 11.8 11.8 0 0 1-2.517-2.453C1.928 10.487.545 7.169 1.141 2.692A1.54 1.54 0 0 1 2.185 1.43 63 63 0 0 1 5.072.56"/>
</symbol>
<symbol id="tips" viewBox="0 0 16 16">
<path d="M2 6a6 6 0 1 1 10.174 4.31c-.203.196-.359.4-.453.619l-.762 1.769A.5.5 0 0 1 10.5 13a.5.5 0 0 1 0 1 .5.5 0 0 1 0 1l-.224.447a1 1 0 0 1-.894.553H6.618a1 1 0 0 1-.894-.553L5.5 15a.5.5 0 0 1 0-1 .5.5 0 0 1 0-1 .5.5 0 0 1-.46-.302l-.761-1.77a2 2 0 0 0-.453-.618A5.98 5.98 0 0 1 2 6m6-5a5 5 0 0 0-3.479 8.592c.263.254.514.564.676.941L5.83 12h4.342l.632-1.467c.162-.377.413-.687.676-.941A5 5 0 0 0 8 1"/>
</symbol>
<symbol id="light" width="16" height="16" viewBox="0 0 16 16">
<path d="M8 11a3 3 0 1 1 0-6 3 3 0 0 1 0 6m0 1a4 4 0 1 0 0-8 4 4 0 0 0 0 8M8 0a.5.5 0 0 1 .5.5v2a.5.5 0 0 1-1 0v-2A.5.5 0 0 1 8 0m0 13a.5.5 0 0 1 .5.5v2a.5.5 0 0 1-1 0v-2A.5.5 0 0 1 8 13m8-5a.5.5 0 0 1-.5.5h-2a.5.5 0 0 1 0-1h2a.5.5 0 0 1 .5.5M3 8a.5.5 0 0 1-.5.5h-2a.5.5 0 0 1 0-1h2A.5.5 0 0 1 3 8m10.657-5.657a.5.5 0 0 1 0 .707l-1.414 1.415a.5.5 0 1 1-.707-.708l1.414-1.414a.5.5 0 0 1 .707 0m-9.193 9.193a.5.5 0 0 1 0 .707L3.05 13.657a.5.5 0 0 1-.707-.707l1.414-1.414a.5.5 0 0 1 .707 0m9.193 2.121a.5.5 0 0 1-.707 0l-1.414-1.414a.5.5 0 0 1 .707-.707l1.414 1.414a.5.5 0 0 1 0 .707M4.464 4.465a.5.5 0 0 1-.707 0L2.343 3.05a.5.5 0 1 1 .707-.707l1.414 1.414a.5.5 0 0 1 0 .708"/>
</symbol>
<symbol id="system" viewBox="0 0 16 16">
<path d="M0 4s0-2 2-2h12s2 0 2 2v6s0 2-2 2h-4q0 1 .25 1.5H11a.5.5 0 0 1 0 1H5a.5.5 0 0 1 0-1h.75Q6 13 6 12H2s-2 0-2-2zm1.398-.855a.76.76 0 0 0-.254.302A1.5 1.5 0 0 0 1 4.01V10c0 .325.078.502.145.602q.105.156.302.254a1.5 1.5 0 0 0 .538.143L2.01 11H14c.325 0 .502-.078.602-.145a.76.76 0 0 0 .254-.302 1.5 1.5 0 0 0 .143-.538L15 9.99V4c0-.325-.078-.502-.145-.602a.76.76 0 0 0-.302-.254A1.5 1.5 0 0 0 13.99 3H2c-.325 0-.502.078-.602.145"/>
</symbol>
<symbol id="dark" viewBox="0 0 16 16">
<path d="M6 .278a.77.77 0 0 1 .08.858 7.2 7.2 0 0 0-.878 3.46c0 4.021 3.278 7.277 7.318 7.277q.792-.001 1.533-.16a.79.79 0 0 1 .81.316.73.73 0 0 1-.031.893A8.35 8.35 0 0 1 8.344 16C3.734 16 0 12.286 0 7.71 0 4.266 2.114 1.312 5.124.06A.75.75 0 0 1 6 .278M4.858 1.311A7.27 7.27 0 0 0 1.025 7.71c0 4.02 3.279 7.276 7.319 7.276a7.32 7.32 0 0 0 5.205-2.162q-.506.063-1.029.063c-4.61 0-8.343-3.714-8.343-8.29 0-1.167.242-2.278.681-3.286"/>
</symbol>
</svg>
