<?xml version="1.0" standalone="no"?><!-- Generator: Adobe Fireworks CS6, Export SVG Extension by Aaron Beall (http://fireworks.abeall.com) . Version: 0.6.1  --><!DOCTYPE svg PUBLIC "-//W3C//DTD SVG 1.1//EN" "http://www.w3.org/Graphics/SVG/1.1/DTD/svg11.dtd"><svg id="Grav-logo.fw-Page%201" viewBox="0 0 445 106" style="background-color:#ffffff00" version="1.1"	xmlns="http://www.w3.org/2000/svg" xmlns:xlink="http://www.w3.org/1999/xlink" xml:space="preserve"	x="0px" y="0px" width="445px" height="106px">	<g id="Layer_1_1">		<path d="M 88.5028 55.977 L 77.8611 55.977 C 76.2446 55.977 74.9309 57.2923 74.9309 58.9129 L 74.9309 79.3307 L 74.7209 79.5063 C 68.4579 84.7839 60.5389 87.6857 52.4241 87.6857 C 33.2803 87.6857 17.705 72.127 17.705 53.0011 C 17.705 33.8733 33.2803 18.317 52.4241 18.317 C 59.8679 18.317 66.986 20.6705 73.011 25.128 C 74.1802 25.9934 75.8026 25.8744 76.8331 24.848 L 84.4214 17.2682 C 85.0129 16.6798 85.3215 15.8622 85.2737 15.0279 C 85.2282 14.1937 84.8263 13.4214 84.1695 12.9009 C 75.1545 5.7567 63.8799 1.8251 52.4241 1.8251 C 24.1775 1.8251 1.1955 24.7826 1.1955 53.0011 C 1.1955 81.2196 24.1775 104.1752 52.4241 104.1752 C 67.0085 104.1752 80.9584 97.9072 90.6942 86.9724 C 91.1728 86.4358 91.436 85.745 91.436 85.0269 L 91.436 58.9129 C 91.436 57.2923 90.1223 55.977 88.5028 55.977 Z" fill="#221e1f"/>		<path d="M 444.5214 6.529 C 443.9774 5.7084 443.0543 5.2108 442.0698 5.2108 L 430.4894 5.2108 C 429.3173 5.2108 428.2585 5.9065 427.7936 6.9812 L 395.1428 82.7018 L 361.9099 6.9642 C 361.44 5.9006 360.3861 5.2108 359.2257 5.2108 L 347.6063 5.2108 C 346.6149 5.2108 345.686 5.7084 345.1478 6.5373 C 344.6047 7.3661 344.5139 8.4126 344.9163 9.3205 L 385.1721 101.0519 C 385.6419 102.1154 386.6959 102.8063 387.8621 102.8063 L 402.5211 102.8063 C 403.6932 102.8063 404.7521 102.1047 405.217 101.0353 L 444.7646 9.3005 C 445.1495 8.3955 445.0596 7.3544 444.5214 6.529 Z" fill="#221e1f"/>		<path d="M 292.3438 6.9642 C 291.8739 5.9006 290.82 5.2108 289.6537 5.2108 L 275.0005 5.2108 C 273.8285 5.2108 272.7697 5.9065 272.3047 6.9812 L 232.7571 98.7161 C 232.3664 99.6157 232.4562 100.6617 233.0003 101.4822 C 233.5434 102.3077 234.4615 102.8063 235.4519 102.8063 L 247.0323 102.8063 C 248.2044 102.8063 249.2632 102.1047 249.7281 101.0353 L 282.3731 25.3119 L 315.606 101.0519 C 316.0758 102.1154 317.1298 102.8063 318.2901 102.8063 L 329.9154 102.8063 C 330.9068 102.8063 331.8357 102.3077 332.3729 101.4822 C 332.9169 100.6509 333.002 99.604 332.6053 98.6936 L 292.3438 6.9642 Z" fill="#221e1f"/>		<path d="M 186.3409 69.2477 L 186.9758 68.9423 C 198.5445 63.3593 206.0186 51.5078 206.0186 38.7465 C 206.0186 20.2548 190.9561 5.2108 172.4447 5.2108 L 129.9522 5.2108 C 128.3327 5.2108 127.019 6.5261 127.019 8.1438 L 127.019 99.8704 C 127.019 101.4939 128.3327 102.8063 129.9522 102.8063 L 140.5919 102.8063 C 142.2114 102.8063 143.5261 101.4939 143.5261 99.8704 L 143.5261 21.6998 L 172.4447 21.6998 C 181.8567 21.6998 189.5125 29.345 189.5125 38.7465 C 189.5125 46.5863 184.1833 53.3856 176.5392 55.2755 C 175.163 55.6238 173.7868 55.7994 172.4447 55.7994 L 161.805 55.7994 C 160.7003 55.7994 159.6923 56.421 159.1941 57.4055 C 158.6901 58.39 158.7868 59.5696 159.4432 60.4633 L 189.6082 101.6061 C 190.1581 102.3594 191.0352 102.8063 191.9699 102.8063 L 205.1922 102.8063 C 206.296 102.8063 207.3088 102.1837 207.807 101.1993 C 208.311 100.2099 208.2094 99.0273 207.5579 98.1394 L 186.3409 69.2477 Z" fill="#221e1f"/>	</g></svg>