<svg width="600" height="100" viewBox="0 0 600 100" fill="#333" xmlns="http://www.w3.org/2000/svg">
<symbol id="logo" viewBox="0 0 600 100">
<path d="M554.344 9.168H592.456V50.736H554.344V39.888H580.936V20.112H554.344V9.168ZM547.912 9.168H559.24V44.592C559.24 48.496 559.048 52.72 558.664 57.264C558.344 61.808 557.704 66.384 556.744 70.992C555.784 75.6 554.376 80.016 552.52 84.24C550.728 88.464 548.328 92.208 545.32 95.472C544.744 94.768 543.912 93.904 542.824 92.88C541.736 91.856 540.616 90.864 539.464 89.904C538.376 88.944 537.416 88.24 536.584 87.792C539.208 84.848 541.288 81.616 542.824 78.096C544.36 74.512 545.48 70.8 546.184 66.96C546.888 63.056 547.336 59.216 547.528 55.44C547.784 51.664 547.912 48.048 547.912 44.592V9.168ZM578.152 45.84C578.92 51.984 579.976 57.424 581.32 62.16C582.664 66.896 584.584 71.152 587.08 74.928C589.64 78.64 593.032 82.16 597.256 85.488C595.72 86.704 594.216 88.208 592.744 90C591.272 91.856 590.152 93.68 589.384 95.472C584.392 91.248 580.424 86.768 577.48 82.032C574.536 77.296 572.296 72.08 570.76 66.384C569.224 60.688 568.008 54.32 567.112 47.28L578.152 45.84ZM510.28 34.608H539.272V43.344H510.28V34.608ZM510.664 8.208H539.08V16.848H510.664V8.208ZM510.28 47.76H539.272V56.4H510.28V47.76ZM505.768 21.072H542.44V30.192H505.768V21.072ZM515.272 61.008H539.464V90.288H515.272V81.168H529.576V70.128H515.272V61.008ZM510.088 61.008H519.784V94.032H510.088V61.008Z"/>
<path d="M450.552 71.952H479.352V82.992H450.552V71.952ZM446.424 14.16H485.016V90H473.112V25.2H457.656V90.672H446.424V14.16ZM418.296 14.64H429.816V95.184H418.296V14.64ZM401.112 33.744H443.928V44.4H401.112V33.744ZM417.528 37.872L425.208 40.464C424.184 44.304 422.968 48.272 421.56 52.368C420.152 56.464 418.584 60.464 416.856 64.368C415.128 68.272 413.24 71.92 411.192 75.312C409.208 78.64 407.096 81.488 404.856 83.856C404.28 82.192 403.384 80.368 402.168 78.384C401.016 76.336 399.96 74.576 399 73.104C400.984 70.992 402.904 68.56 404.76 65.808C406.68 63.056 408.44 60.112 410.04 56.976C411.704 53.776 413.176 50.544 414.456 47.28C415.736 44.016 416.76 40.88 417.528 37.872ZM436.824 6L444.312 15.024C440.536 16.304 436.408 17.488 431.928 18.576C427.448 19.664 422.872 20.592 418.2 21.36C413.528 22.128 408.984 22.768 404.568 23.28C404.376 22 403.96 20.496 403.32 18.768C402.68 17.04 402.04 15.536 401.4 14.256C405.624 13.68 409.88 12.976 414.168 12.144C418.52 11.312 422.648 10.384 426.552 9.36C430.456 8.272 433.88 7.152 436.824 6ZM428.856 44.976C429.432 45.488 430.264 46.352 431.352 47.568C432.44 48.784 433.656 50.128 435 51.6C436.344 53.072 437.656 54.544 438.936 56.016C440.216 57.488 441.368 58.832 442.392 60.048C443.416 61.264 444.152 62.128 444.6 62.64L437.976 72.24C437.144 70.768 436.088 69.04 434.808 67.056C433.592 65.072 432.248 63.056 430.776 61.008C429.368 58.896 427.992 56.944 426.648 55.152C425.368 53.296 424.248 51.728 423.288 50.448L428.856 44.976Z"/>
<path d="M79.9788 52.5276H70.9632C69.5937 52.5276 68.4808 53.6444 68.4808 55.0204V72.3563L68.3029 72.5053C62.9969 76.9863 56.288 79.4501 49.4132 79.4501C33.1948 79.4501 19.9995 66.2399 19.9995 50.0009C19.9995 33.7603 33.1948 20.5522 49.4132 20.5522C55.7195 20.5522 61.7499 22.5504 66.8543 26.3351C67.8448 27.0699 69.2193 26.9688 70.0923 26.0974L76.5211 19.6617C77.0222 19.1621 77.2836 18.4679 77.2431 17.7595C77.2046 17.0513 76.8641 16.3955 76.3076 15.9536C68.6702 9.88776 59.1185 6.54961 49.4132 6.54961C25.483 6.54961 6.01282 26.0418 6.01282 50.0009C6.01282 73.96 25.483 93.4506 49.4132 93.4506C61.769 93.4506 73.5872 88.1287 81.8353 78.8445C82.2408 78.3889 82.4638 77.8024 82.4638 77.1926V55.0204C82.4638 53.6444 81.3508 52.5276 79.9788 52.5276Z"/>
<path d="M381.595 10.5435C381.134 9.84675 380.352 9.42426 379.518 9.42426H369.707C368.714 9.42426 367.817 10.015 367.423 10.9274L339.761 75.2185L311.607 10.913C311.209 10.0099 310.316 9.42426 309.333 9.42426H299.489C298.649 9.42426 297.862 9.84675 297.406 10.5505C296.946 11.2542 296.869 12.1428 297.21 12.9136L331.314 90.7988C331.712 91.7018 332.605 92.2884 333.593 92.2884H346.012C347.005 92.2884 347.902 91.6927 348.296 90.7847L381.801 12.8967C382.127 12.1283 382.05 11.2443 381.595 10.5435Z"/>
<path d="M252.671 10.913C252.273 10.0099 251.38 9.42426 250.392 9.42426H237.978C236.985 9.42426 236.088 10.015 235.694 10.9274L202.19 88.8156C201.859 89.5794 201.935 90.4675 202.396 91.1641C202.856 91.865 203.634 92.2884 204.473 92.2884H214.284C215.277 92.2884 216.174 91.6927 216.567 90.7847L244.224 26.4912L272.379 90.7988C272.777 91.7018 273.67 92.2884 274.653 92.2884H284.501C285.341 92.2884 286.128 91.865 286.583 91.1641C287.044 90.4583 287.116 89.5694 286.78 88.7964L252.671 10.913Z"/>
<path d="M162.866 63.7952L163.404 63.5359C173.205 58.7956 179.537 48.733 179.537 37.898C179.537 22.1975 166.776 9.42426 151.094 9.42426H115.094C113.722 9.42426 112.609 10.541 112.609 11.9145V89.7956C112.609 91.1741 113.722 92.2884 115.094 92.2884H124.108C125.48 92.2884 126.594 91.1741 126.594 89.7956V23.4244H151.094C159.067 23.4244 165.553 29.9156 165.553 37.898C165.553 44.5544 161.038 50.3274 154.562 51.932C153.397 52.2278 152.231 52.3768 151.094 52.3768H142.08C141.144 52.3768 140.29 52.9046 139.868 53.7405C139.441 54.5764 139.523 55.578 140.079 56.3368L165.634 91.2693C166.1 91.9089 166.843 92.2884 167.635 92.2884H178.837C179.772 92.2884 180.63 91.7597 181.052 90.9239C181.479 90.0839 181.393 89.0798 180.841 88.3259L162.866 63.7952Z"/>
</symbol>
</svg>
